<?xml version="1.0" encoding="UTF-8" standalone="no"?>
<!-- Created with Inkscape (http://www.inkscape.org/) -->

<svg
   width="30cm"
   height="20.200001cm"
   viewBox="0 0 300 202.00001"
   version="1.1"
   id="svg1"
   inkscape:version="1.3.2 (091e20e, 2023-11-25, custom)"
   sodipodi:docname="Smart Parking System.svg"
   xml:space="preserve"
   xmlns:inkscape="http://www.inkscape.org/namespaces/inkscape"
   xmlns:sodipodi="http://sodipodi.sourceforge.net/DTD/sodipodi-0.dtd"
   xmlns="http://www.w3.org/2000/svg"
   xmlns:svg="http://www.w3.org/2000/svg"><sodipodi:namedview
     id="namedview1"
     pagecolor="#ffffff"
     bordercolor="#000000"
     borderopacity="0.25"
     inkscape:showpageshadow="2"
     inkscape:pageopacity="0.0"
     inkscape:pagecheckerboard="0"
     inkscape:deskcolor="#d1d1d1"
     inkscape:document-units="mm"
     inkscape:zoom="0.70710678"
     inkscape:cx="590.43416"
     inkscape:cy="96.873629"
     inkscape:window-width="1920"
     inkscape:window-height="991"
     inkscape:window-x="-9"
     inkscape:window-y="-9"
     inkscape:window-maximized="1"
     inkscape:current-layer="layer1"
     showgrid="true"><inkscape:grid
       id="grid1"
       units="mm"
       originx="0"
       originy="0"
       spacingx="1"
       spacingy="1"
       empcolor="#0099e5"
       empopacity="0.30196078"
       color="#0099e5"
       opacity="0.14901961"
       empspacing="5"
       dotted="false"
       gridanglex="30"
       gridanglez="30"
       visible="true" /></sodipodi:namedview><defs
     id="defs1" /><g
     inkscape:label="Layer 1"
     inkscape:groupmode="layer"
     id="layer1"><path
       id="path7"
       style="fill:none;stroke:#ff0000;stroke-width:0.2;stroke-linecap:square;stroke-dashoffset:0.377953"
       d="m 23.999975,67.404094 a 1.4,1.4 0 0 1 -1.4,1.4 1.4,1.4 0 0 1 -1.4,-1.4 1.4,1.4 0 0 1 1.4,-1.4 1.4,1.4 0 0 1 1.4,1.4 z M 10.199963,55.008057 v 24.79952 h 5.000212 v 2.40037 h 4.799707 v -2.40037 h 5.200199 v 2.40037 h 4.800224 v -2.40037 H 35 V 74.80013 h 2.399853 V 69.999906 H 35 v -5.200199 h 2.399853 V 60 H 35 v -4.991943 z" /><g
       id="g9"
       transform="translate(7.1005008,10.099686)"><path
         id="rect1"
         style="fill:none;stroke:#ff0000;stroke-width:0.2;stroke-linecap:square;stroke-linejoin:miter;stroke-dasharray:none;stroke-dashoffset:455.672;stroke-opacity:1"
         d="m 96.699524,40.099878 v 4.800224 h 2.40037 v 5.199682 h -2.40037 v 4.800224 h 2.40037 v 5.199683 h -2.40037 v 4.800224 h 2.40037 v 5.200199 h -2.40037 v 4.799707 h 2.40037 v 5.000212 H 284.89992 V 40.099878 h -75.00007 v 29.849858 h -5.80016 V 40.099878 h -85.19945 v 2.40037 h -4.80023 v -2.40037 h -5.2002 v 2.40037 h -4.7997 v -2.40037 h -5.000216 z m 53.400356,21.80022 h 14.79962 v 8.000028 h -14.79962 z m 99.99958,0 h 14.80013 v 8.000028 h -14.80013 z" /><text
         xml:space="preserve"
         style="font-weight:bold;font-size:4.09825px;font-family:Arial;-inkscape-font-specification:'Arial, Bold';fill:#000000;fill-opacity:1;stroke:none;stroke-width:0.2;stroke-linecap:square;stroke-linejoin:miter;stroke-dasharray:none;stroke-dashoffset:0.377953;stroke-opacity:1"
         x="151.97427"
         y="49.992188"
         id="text8"><tspan
           sodipodi:role="line"
           id="tspan8"
           style="fill:#000000;fill-opacity:1;stroke:none;stroke-width:0.2"
           x="151.97427"
           y="49.992188">ENTRY</tspan></text><path
         id="path8"
         style="fill:#000000;fill-opacity:1;stroke:none;stroke-width:0.2;stroke-linecap:square;stroke-linejoin:miter;stroke-dasharray:none;stroke-dashoffset:0.377953;stroke-opacity:1"
         d="m 165,52 v -1.469269 l 2.70995,1.965362 L 165,54.596226 v -1.604039 z m -14.72169,10e-7 H 165 v 0.992187 h -14.72169 z" /><text
         xml:space="preserve"
         style="font-weight:bold;font-size:4.09825px;font-family:Arial;-inkscape-font-specification:'Arial, Bold';fill:#000000;fill-opacity:1;stroke:none;stroke-width:0.2;stroke-linecap:square;stroke-linejoin:miter;stroke-dasharray:none;stroke-dashoffset:0.377953;stroke-opacity:1"
         x="252.76222"
         y="49.992188"
         id="text8-4"><tspan
           sodipodi:role="line"
           id="tspan8-2"
           style="fill:#000000;fill-opacity:1;stroke:none;stroke-width:0.2"
           x="252.76222"
           y="49.992188">EXIT</tspan></text><path
         id="path8-7"
         style="fill:#000000;fill-opacity:1;stroke:none;stroke-width:0.2;stroke-linecap:square;stroke-linejoin:miter;stroke-dasharray:none;stroke-dashoffset:0.377953;stroke-opacity:1"
         d="m 251.4179,52.538541 v -1.469269 l -2.70995,1.965362 2.70995,2.100133 v -1.604039 z m 14.72169,10e-7 H 251.4179 v 0.992187 h 14.72169 z" /></g><g
       id="g10"
       transform="translate(10.100062,9.8958696)"><path
         id="rect2"
         style="fill:none;stroke:#ff0000;stroke-width:0.2;stroke-linecap:round;stroke-linejoin:miter;stroke-dasharray:none;stroke-dashoffset:455.672;stroke-opacity:1"
         d="m 34.899679,39.89989 v 40.000143 h 55.00026 v 0.0041 h 2.399853 v -4.80019 H 89.899939 V 69.90426 h 2.399853 v -4.800224 h -2.399853 v -5.200199 h 2.399853 V 55.10413 h -2.399853 v -5.200199 h 2.399853 V 45.104224 H 89.899939 V 39.89989 h -4.999695 v 2.40037 H 80.10002 v -2.40037 h -5.200199 v 2.40037 h -4.799707 v -2.40037 z" /><rect
         style="fill:none;stroke:#ff0000;stroke-width:0.2;stroke-linecap:square;stroke-linejoin:miter;stroke-dasharray:none;stroke-dashoffset:0.377953;stroke-opacity:1"
         id="rect7"
         width="14.900001"
         height="10"
         x="45"
         y="50" /><path
         style="fill:#000000;stroke-width:1"
         d="m 59.129507,73.932321 c -0.07797,-0.02039 -0.137375,-0.0624 -0.178801,-0.126499 -0.04557,-0.07052 -0.04723,-0.08768 -0.04723,-0.490472 v -0.356144 l -0.01523,-0.01059 c -0.01324,-0.0093 -0.05578,-0.01059 -0.325658,-0.01059 h -0.310436 l -0.01778,0.01776 c -0.01768,0.01766 -0.01776,0.01824 -0.0139,0.101041 0.0022,0.0458 0.0018,0.217327 -7.39e-4,0.3812 l -0.0046,0.297945 -0.02198,0.04638 c -0.02672,0.05641 -0.07566,0.106172 -0.130306,0.132474 -0.03337,0.01606 -0.05055,0.01945 -0.11089,0.02193 -0.08038,0.0031 -0.130356,-0.0053 -0.181453,-0.03105 -0.04449,-0.02245 -0.09998,-0.0757 -0.12304,-0.118057 -0.03602,-0.06618 -0.03824,-0.09458 -0.03837,-0.49042 -9.3e-5,-0.280218 -0.002,-0.365917 -0.0086,-0.374308 -0.005,-0.0063 -0.04673,-0.02029 -0.0976,-0.03279 -0.400733,-0.09867 -0.705614,-0.324819 -0.915032,-0.678719 -0.109532,-0.1851 -0.177773,-0.372862 -0.19055,-0.524315 -0.003,-0.03569 -0.0091,-0.06858 -0.01357,-0.07308 -0.006,-0.0061 -0.104135,-0.0091 -0.375987,-0.01175 -0.362842,-0.0035 -0.368422,-0.0038 -0.411975,-0.01937 -0.08795,-0.03158 -0.140453,-0.0777 -0.180457,-0.158496 -0.02125,-0.04294 -0.02197,-0.04716 -0.0217,-0.130141 2.22e-4,-0.0728 0.0026,-0.0917 0.01589,-0.125059 0.03316,-0.08346 0.08858,-0.140933 0.161029,-0.166976 0.03228,-0.01159 0.0659,-0.01275 0.40846,-0.01457 0.369068,-0.002 0.373428,-0.0022 0.385279,-0.01622 0.01109,-0.01324 0.01192,-0.0391 0.01192,-0.324448 0,-0.285356 -9.48e-4,-0.31127 -0.01192,-0.324407 -0.01175,-0.01407 -0.01677,-0.01424 -0.37843,-0.01639 -0.358911,-0.0022 -0.367287,-0.0025 -0.407539,-0.01736 -0.08108,-0.02999 -0.14542,-0.09642 -0.171835,-0.177433 -0.01925,-0.05906 -0.01801,-0.168842 0.0026,-0.228056 0.02948,-0.08475 0.08877,-0.144028 0.172676,-0.172665 0.0432,-0.01473 0.0554,-0.01523 0.412933,-0.01887 0.317299,-0.0031 0.369312,-0.0051 0.3749,-0.0139 0.0038,-0.0061 0.0065,-0.138069 0.0066,-0.322875 9.6e-5,-0.287803 -8.44e-4,-0.313735 -0.01192,-0.32688 -0.01175,-0.01407 -0.0167,-0.01423 -0.378429,-0.01639 -0.349692,-0.002 -0.368352,-0.0028 -0.408219,-0.01622 -0.106635,-0.03622 -0.165117,-0.109433 -0.182452,-0.228389 -0.0243,-0.166678 0.05468,-0.306198 0.200255,-0.35379 0.03397,-0.01109 0.07409,-0.01258 0.408725,-0.01473 0.305258,-0.002 0.372447,-0.0041 0.378911,-0.01175 0.0043,-0.0053 0.01258,-0.04125 0.01826,-0.0801 0.02361,-0.160333 0.07692,-0.324992 0.149955,-0.463131 0.06616,-0.125142 0.124894,-0.204905 0.232285,-0.315478 0.220852,-0.227386 0.497068,-0.386691 0.742655,-0.428318 0.03537,-0.006 0.06851,-0.0144 0.07363,-0.01864 0.0076,-0.0063 0.0093,-0.07434 0.0094,-0.378471 1.09e-4,-0.404231 0.0016,-0.423183 0.03946,-0.493037 0.02754,-0.05087 0.07628,-0.09588 0.135421,-0.125109 0.04408,-0.02178 0.06037,-0.02609 0.108258,-0.0286 0.138285,-0.0073 0.254801,0.05464 0.304531,0.16179 0.0175,0.03769 0.01819,0.04426 0.02313,0.216955 0.0028,0.09794 0.0031,0.269148 8.96e-4,0.380446 -0.0043,0.205409 -0.0025,0.225275 0.02109,0.241033 0.0041,0.0028 0.149607,0.0051 0.32326,0.0051 0.297244,9.9e-5 0.316386,-6.33e-4 0.327058,-0.01242 0.01026,-0.01126 0.01142,-0.04694 0.01142,-0.368157 1.11e-4,-0.387255 0.0018,-0.408682 0.03913,-0.477157 0.02581,-0.04739 0.08872,-0.103573 0.13572,-0.121152 0.0559,-0.02092 0.119,-0.02812 0.182647,-0.02086 0.115921,0.01324 0.198242,0.07858 0.240437,0.190892 0.01391,0.03703 0.01457,0.0517 0.01662,0.411691 0.0022,0.368316 0.0023,0.373452 0.01639,0.38528 0.01308,0.01109 0.039,0.01192 0.324376,0.01192 0.289686,0 0.311145,-8.44e-4 0.325524,-0.01241 L 60.2,67.036529 60.1988,66.704811 c -6.34e-4,-0.18547 0.0018,-0.354368 0.0056,-0.383089 0.0169,-0.129032 0.06714,-0.199866 0.170814,-0.24088 0.03306,-0.01308 0.05208,-0.01539 0.131134,-0.01556 0.08771,-3.21e-4 0.09465,6.86e-4 0.135007,0.01932 0.0506,0.02337 0.108092,0.0803 0.135272,0.133931 0.03569,0.07042 0.03769,0.09632 0.03782,0.488059 1.04e-4,0.316159 0.0014,0.362127 0.01076,0.3714 0.01076,0.01076 0.01655,0.01258 0.116931,0.03786 0.217502,0.05477 0.442922,0.173011 0.605375,0.317509 0.134444,0.11958 0.245934,0.267073 0.33507,0.443253 0.08313,0.164323 0.128949,0.304343 0.14287,0.436629 0.0036,0.03483 0.01043,0.06797 0.01523,0.07363 0.0074,0.0089 0.05438,0.01026 0.348465,0.01043 0.195517,3e-5 0.358832,0.003 0.38444,0.007 0.101636,0.01589 0.205389,0.09455 0.240675,0.182564 0.01374,0.03417 0.01589,0.05155 0.01573,0.12203 -2e-4,0.06894 -0.0028,0.08853 -0.01573,0.1215 -0.03246,0.08214 -0.08947,0.141281 -0.160946,0.166966 -0.03228,0.01159 -0.0659,0.01275 -0.408461,0.01457 -0.369067,0.002 -0.373428,0.0022 -0.385278,0.01639 -0.01109,0.01324 -0.01192,0.03928 -0.01192,0.328141 0,0.276162 0.0013,0.315117 0.01076,0.324587 0.0094,0.0094 0.05057,0.01076 0.347608,0.01076 0.200976,3.2e-5 0.354801,0.003 0.381364,0.0073 0.111188,0.01788 0.19037,0.08152 0.227548,0.182927 0.02059,0.05618 0.02059,0.179891 0,0.236072 -0.01708,0.04658 -0.04729,0.0923 -0.07836,0.11857 -0.03324,0.02811 -0.09867,0.05635 -0.149193,0.06441 -0.0263,0.0041 -0.182358,0.0071 -0.381364,0.0071 -0.297045,4.7e-5 -0.338116,0.0013 -0.347608,0.01076 -0.0094,0.0094 -0.01076,0.04872 -0.01076,0.327711 0,0.302756 5.81e-4,0.317474 0.01308,0.32873 0.01192,0.01076 0.04438,0.01192 0.385279,0.01374 0.367284,0.0018 0.372786,0.002 0.411876,0.01726 0.04863,0.01887 0.111188,0.07492 0.137391,0.123056 0.02152,0.03955 0.03845,0.111005 0.03862,0.163081 4.62e-4,0.137938 -0.0799,0.252972 -0.205363,0.293979 -0.03395,0.01109 -0.07401,0.01258 -0.405108,0.01473 -0.346408,0.0022 -0.368089,0.0031 -0.378844,0.0149 -0.0071,0.0078 -0.01639,0.04327 -0.02458,0.09381 -0.04791,0.295266 -0.177897,0.551636 -0.392948,0.77494 -0.215032,0.223285 -0.455665,0.354831 -0.772383,0.422249 -0.04168,0.0088 -0.03984,-0.0089 -0.03998,0.389652 -1.32e-4,0.402122 -0.0018,0.423481 -0.04161,0.497956 -0.03672,0.06888 -0.103043,0.118604 -0.180876,0.135587 -0.152504,0.03325 -0.277616,-0.0078 -0.344425,-0.113306 -0.04532,-0.07153 -0.04451,-0.0633 -0.04627,-0.471071 -8.97e-4,-0.203423 -0.002,-0.3735 -0.0023,-0.377938 -4.29e-4,-0.0041 -0.0056,-0.01291 -0.01159,-0.01882 -0.0094,-0.0094 -0.04877,-0.01076 -0.328284,-0.01076 -0.343706,0 -0.338764,-5.26e-4 -0.339233,0.03642 -1.04e-4,0.0083 -2.1e-5,0.161956 1.84e-4,0.341653 2.28e-4,0.200286 -0.0025,0.344747 -0.007,0.37329 -0.0291,0.185037 -0.197367,0.291683 -0.38346,0.243041 z m 1.60276,-1.50776 c 0.125274,-0.02369 0.277608,-0.09008 0.390159,-0.170075 0.08013,-0.05696 0.189287,-0.164803 0.242121,-0.239257 0.05218,-0.07351 0.108373,-0.182014 0.134097,-0.258895 0.04441,-0.132673 0.04185,-0.02528 0.04185,-1.756842 0,-1.724952 0.0025,-1.621895 -0.0408,-1.749355 -0.114349,-0.33727 -0.405759,-0.600748 -0.743449,-0.672183 -0.05054,-0.01076 -0.170751,-0.01159 -1.547965,-0.01126 -1.360022,2.68e-4 -1.498057,0.0013 -1.547965,0.01159 -0.353934,0.07298 -0.646476,0.350962 -0.746028,0.708895 -0.03205,0.115226 -0.03102,0.05952 -0.03148,1.693443 -3.06e-4,1.078318 0.0018,1.55238 0.0071,1.590846 0.03051,0.222585 0.123288,0.4102 0.287485,0.581288 0.129479,0.134908 0.2833,0.221888 0.463536,0.262091 0.07914,0.01766 0.272893,0.01975 1.748888,0.0189 0.995143,-5.79e-4 1.308348,-0.0026 1.342482,-0.0091 z m -2.922408,-0.346085 c -0.244878,-0.04473 -0.454481,-0.218162 -0.540406,-0.447169 -0.04772,-0.127194 -0.04468,-0.0084 -0.04238,-1.655787 l 0.0022,-1.486322 0.01573,-0.05479 c 0.02091,-0.07267 0.0604,-0.155864 0.103755,-0.218571 0.04094,-0.05921 0.136464,-0.153514 0.193872,-0.191386 0.05477,-0.03614 0.144509,-0.07724 0.208275,-0.09541 l 0.05332,-0.01523 1.369881,-0.002 c 0.995211,-0.0015 1.384824,8.9e-5 1.424515,0.0058 0.240808,0.03427 0.456049,0.204145 0.547581,0.432166 0.01258,0.03152 0.02874,0.08195 0.03574,0.112082 0.01225,0.05254 0.01275,0.116335 0.01275,1.544541 v 1.489746 l -0.01539,0.05822 c -0.06438,0.242545 -0.267479,0.442533 -0.520328,0.512341 l -0.06697,0.01849 -1.366455,0.0012 c -1.100202,9.49e-4 -1.37602,-5.79e-4 -1.415539,-0.0078 z m 1.980614,-0.599327 c 0.358265,-0.03749 0.585733,-0.209311 0.708526,-0.535163 0.06038,-0.160267 0.08431,-0.299272 0.08411,-0.489008 -2.75e-4,-0.26047 -0.04213,-0.4746 -0.124331,-0.636039 -0.04391,-0.08624 -0.08596,-0.145105 -0.154142,-0.21572 -0.116501,-0.120673 -0.241042,-0.183964 -0.428544,-0.217795 -0.05635,-0.0101 -0.129297,-0.01208 -0.544085,-0.0144 -0.263458,-0.0014 -0.486061,-8.43e-4 -0.494672,0.0013 -0.0086,0.0022 -0.0193,0.01076 -0.02377,0.01908 -0.0061,0.01159 -0.0078,0.262977 -0.0068,1.046165 l 0.0013,1.031013 0.01523,0.01275 c 0.01457,0.01225 0.03299,0.01258 0.453519,0.0091 0.254574,-0.0022 0.46995,-0.007 0.513705,-0.01142 z m -0.530827,-0.355 c -0.0056,-0.0018 -0.01258,-0.0068 -0.01523,-0.01093 -0.0028,-0.0041 -0.0051,-0.31283 -0.0051,-0.685969 -8.1e-5,-0.518656 0.0018,-0.68037 0.0081,-0.686654 0.006,-0.006 0.05074,-0.0081 0.159242,-0.0081 0.338062,3.48e-4 0.466401,0.02816 0.567383,0.122924 0.0698,0.0655 0.109102,0.14436 0.134941,0.270764 0.05593,0.273516 0.02955,0.630201 -0.05909,0.798873 -0.03115,0.05929 -0.09667,0.122791 -0.15444,0.149673 -0.09157,0.04263 -0.11233,0.04486 -0.467898,0.05037 -0.08664,0.0013 -0.162154,8.98e-4 -0.167809,-9.48e-4 z m -0.668307,-0.580618 c 0.0093,-0.0093 0.01076,-0.03877 0.01076,-0.218422 0,-0.240904 0.0041,-0.226432 -0.07192,-0.25011 -0.177842,-0.05535 -0.242919,-0.198425 -0.243098,-0.534459 -6.1e-5,-0.115309 0.01424,-0.261985 0.03145,-0.32188 0.03469,-0.120938 0.117709,-0.198466 0.247171,-0.230847 0.06325,-0.01589 0.244255,-0.01573 0.317221,2.6e-4 0.141016,0.03079 0.231439,0.116385 0.250788,0.237378 0.0023,0.0149 0.0079,0.03016 0.01225,0.03377 0.0093,0.0076 0.503179,0.01761 0.525436,0.01059 0.0144,-0.0045 0.01473,-0.0071 0.01093,-0.07757 -0.01225,-0.223679 -0.144559,-0.434303 -0.342261,-0.5448 -0.101288,-0.05661 -0.262968,-0.104732 -0.418278,-0.124496 -0.06956,-0.0088 -0.122344,-0.01059 -0.230611,-0.0079 -0.439673,0.01126 -0.702917,0.144641 -0.845256,0.428218 -0.08715,0.173632 -0.123553,0.451697 -0.09975,0.762077 0.0144,0.18826 0.04368,0.313483 0.09968,0.426675 0.04019,0.08126 0.07934,0.13456 0.144575,0.196871 0.114862,0.109698 0.263446,0.176981 0.467867,0.211879 0.0919,0.01573 0.119597,0.01622 0.133071,0.0028 z m 5.872176,-0.535221 c -0.0011,-2.314076 7.92e-4,-3.906291 0.0045,-3.911517 0.0045,-0.0063 0.02296,-0.0083 0.06507,-0.0068 l 0.05888,0.002 v 3.907585 3.907586 l -0.06332,0.0022 -0.06332,0.0022 z m 6.330528,3.134172 c -0.322293,-0.03279 -0.582947,-0.156692 -0.806875,-0.383639 -0.08424,-0.08538 -0.143168,-0.168295 -0.19646,-0.276442 -0.06865,-0.139295 -0.103275,-0.255079 -0.131515,-0.439696 -0.01655,-0.108059 -0.01639,-0.38203 1.69e-4,-0.488153 0.0418,-0.267146 0.147985,-0.520411 0.294607,-0.702692 0.156328,-0.194344 0.386824,-0.327208 0.664418,-0.382985 0.230362,-0.04628 0.432078,-0.04829 0.641419,-0.0065 0.214987,0.04304 0.379641,0.122791 0.506102,0.24512 0.07699,0.07449 0.129363,0.146214 0.17872,0.24482 0.04077,0.08146 0.09233,0.227837 0.088,0.249874 -0.0014,0.0071 -0.01424,0.0149 -0.03309,0.02013 -0.211848,0.05899 -0.262931,0.07205 -0.270567,0.06913 -0.005,-0.0018 -0.01109,-0.01374 -0.01374,-0.02617 -0.0084,-0.03993 -0.0589,-0.157917 -0.09157,-0.214123 -0.08783,-0.151114 -0.243253,-0.255551 -0.449441,-0.302017 -0.0733,-0.01655 -0.316537,-0.02109 -0.404115,-0.0076 -0.283423,0.04368 -0.512743,0.202532 -0.635087,0.439942 -0.07775,0.150882 -0.124331,0.350857 -0.133054,0.571342 -0.0088,0.223725 0.0391,0.458786 0.128617,0.630402 0.116104,0.222605 0.311837,0.363509 0.595003,0.428344 0.206038,0.04718 0.413679,0.03526 0.623295,-0.03579 0.116799,-0.0396 0.301907,-0.134097 0.351876,-0.179679 0.03726,-0.03398 0.03854,-0.04319 0.03854,-0.278006 0,-0.206845 -5.79e-4,-0.216557 -0.01374,-0.229677 -0.01341,-0.01341 -0.02283,-0.01374 -0.375409,-0.01374 -0.27891,0 -0.364394,-0.002 -0.37344,-0.0086 -0.01059,-0.0076 -0.01159,-0.02301 -0.0099,-0.148912 l 0.0018,-0.140337 0.02054,-0.0043 c 0.03105,-0.0066 1.077435,-0.007 1.081528,-2.56e-4 0.002,0.0031 0.004,0.220073 0.0045,0.482022 6.85e-4,0.386795 -8.43e-4,0.479033 -0.0083,0.491004 -0.0051,0.0081 -0.04305,0.039 -0.0845,0.06865 -0.329213,0.235587 -0.647646,0.338796 -1.034261,0.335222 -0.05274,-4.9e-4 -0.122096,-0.0036 -0.15411,-0.0068 z m 5.102806,0.0036 c -0.01324,-0.0016 -0.05325,-0.006 -0.08904,-0.0101 -0.152421,-0.01723 -0.280494,-0.0539 -0.399614,-0.114365 -0.254749,-0.12933 -0.409845,-0.341915 -0.460233,-0.630867 -0.01407,-0.0803 -0.01341,-0.122327 0.002,-0.126664 0.02509,-0.0071 0.287181,-0.02723 0.298435,-0.02293 0.0139,0.0053 0.01374,0.0048 0.02821,0.08285 0.05843,0.316013 0.318,0.4994 0.730064,0.515809 0.28824,0.01142 0.522481,-0.07904 0.628317,-0.242783 0.09548,-0.14772 0.07429,-0.34359 -0.04969,-0.459578 -0.08828,-0.08262 -0.222771,-0.134329 -0.58085,-0.223361 -0.370103,-0.09202 -0.479878,-0.1264 -0.591786,-0.185318 -0.09129,-0.04807 -0.131862,-0.07767 -0.201324,-0.146826 -0.09536,-0.09498 -0.143135,-0.183887 -0.164406,-0.306011 -0.01192,-0.06802 -0.0043,-0.232735 0.01357,-0.300529 0.06916,-0.260688 0.292989,-0.445198 0.628577,-0.518136 0.08401,-0.01826 0.330733,-0.02548 0.449911,-0.01308 0.141181,0.01457 0.276131,0.0508 0.377774,0.101388 0.244335,0.121566 0.383983,0.313275 0.424803,0.583154 0.01258,0.08361 0.01076,0.08684 -0.05294,0.09209 -0.269038,0.02216 -0.259881,0.0219 -0.269975,0.0081 -0.0051,-0.0071 -0.0094,-0.02119 -0.0094,-0.03135 0,-0.03099 -0.03364,-0.136712 -0.05862,-0.184238 -0.101636,-0.193427 -0.279155,-0.274439 -0.600371,-0.273994 -0.224134,3.11e-4 -0.368489,0.04622 -0.471441,0.149905 -0.115044,0.115872 -0.140487,0.257825 -0.07086,0.395425 0.02754,0.05443 0.08051,0.100841 0.155136,0.135934 0.103656,0.04875 0.171755,0.06931 0.488632,0.147571 0.337949,0.08348 0.437335,0.113753 0.547942,0.166935 0.223454,0.107447 0.354316,0.251674 0.408071,0.449767 0.01374,0.05035 0.01556,0.07315 0.01523,0.177628 -4.42e-4,0.107165 -0.0025,0.127128 -0.01874,0.188358 -0.03301,0.123967 -0.09167,0.226514 -0.181286,0.316914 -0.134859,0.136033 -0.312477,0.224248 -0.53558,0.265985 -0.05572,0.01043 -0.330708,0.01914 -0.390416,0.01242 z m -9.839143,-0.0507 c -0.0091,-0.0101 -0.01026,-0.162602 -0.01026,-1.299484 0,-1.237491 4.92e-4,-1.28871 0.01258,-1.303564 l 0.01258,-0.01539 0.526871,0.0012 c 0.289778,6.85e-4 0.56848,0.0043 0.619337,0.0083 0.287371,0.02168 0.482028,0.105146 0.661477,0.28359 0.11953,0.118868 0.192467,0.239711 0.249164,0.412849 0.151279,0.461946 0.12784,0.947635 -0.06545,1.356911 -0.137325,0.290769 -0.365503,0.468168 -0.683527,0.531422 -0.154805,0.03079 -0.220933,0.03373 -0.783213,0.03475 -0.485247,0.0011 -0.529943,1e-5 -0.53939,-0.01043 z m 1.030808,-0.301567 c 0.208452,-0.01275 0.314353,-0.04153 0.432383,-0.117246 0.05762,-0.03696 0.132326,-0.11127 0.171204,-0.170272 0.107728,-0.163512 0.177245,-0.443265 0.177245,-0.713271 0,-0.231335 -0.03941,-0.452114 -0.105742,-0.592369 -0.11074,-0.234157 -0.311843,-0.379451 -0.562075,-0.406091 -0.04782,-0.0051 -0.724641,-0.01225 -0.778879,-0.0083 -0.0065,4.77e-4 -0.01523,0.0073 -0.01947,0.01523 -0.01076,0.02023 -0.0094,1.977187 0.0014,1.990259 0.0094,0.01126 0.508789,0.01275 0.683916,0.0022 z m 1.688091,0.306448 c -0.0088,-0.0048 -0.0099,-0.173293 -0.0099,-1.301904 0,-1.079052 0.0015,-1.298438 0.0093,-1.30899 0.0086,-0.01175 0.02094,-0.01258 0.16184,-0.01208 0.119314,3.97e-4 0.154606,0.0025 0.161939,0.0099 0.0078,0.0078 0.0094,0.218031 0.0094,1.298866 7.1e-5,0.884037 -0.0022,1.293719 -0.0071,1.302891 -0.004,0.0074 -0.01093,0.01374 -0.01556,0.0144 -0.03417,0.0041 -0.302081,0.0016 -0.309982,-0.0031 z m 3.853077,0.0041 c -0.02824,-0.0101 -0.02739,0.03026 -0.02739,-1.310884 0,-1.231131 5.26e-4,-1.286271 0.01242,-1.300953 l 0.01241,-0.01539 0.929887,4.59e-4 c 0.705236,3.49e-4 0.932246,0.0025 0.939652,0.0086 0.0078,0.0065 0.0098,0.03471 0.0098,0.144013 0,0.133898 -2.28e-4,0.136033 -0.01539,0.144293 -0.01192,0.0065 -0.18736,0.0084 -0.764305,0.0088 l -0.748893,4.21e-4 -0.01308,0.01622 c -0.01258,0.01556 -0.01308,0.03196 -0.01308,0.390417 5.8e-5,0.205835 0.0023,0.377637 0.0051,0.381782 0.01556,0.02339 0.02711,0.02375 0.732023,0.02303 0.599718,-6.34e-4 0.697597,6.84e-4 0.706151,0.0093 0.0079,0.0079 0.0099,0.03572 0.0099,0.141728 0,0.112677 -0.0016,0.133418 -0.01109,0.142953 -0.0101,0.0101 -0.07366,0.01109 -0.713566,0.01109 h -0.702404 l -0.01308,0.01622 c -0.01258,0.01556 -0.01308,0.03263 -0.01308,0.433537 v 0.417364 l 0.01682,0.01682 0.0168,0.01682 h 0.780654 c 0.700554,0 0.781758,0.0011 0.791417,0.01076 0.0091,0.0091 0.01076,0.03231 0.01076,0.147025 0,0.127708 -8.45e-4,0.136696 -0.01324,0.14335 -0.01374,0.0074 -1.90465,0.0096 -1.925133,0.0022 z m 5.560319,-0.01026 c -0.01175,-0.01175 -0.01225,-0.06444 -0.01225,-1.148239 v -1.135939 l -0.0144,-0.01308 c -0.01391,-0.01258 -0.03145,-0.01308 -0.422495,-0.01391 -0.395327,-7.91e-4 -0.408408,-0.0012 -0.418849,-0.01407 -0.0091,-0.01126 -0.01059,-0.03417 -0.0093,-0.149127 8.44e-4,-0.0747 0.0025,-0.13663 0.0035,-0.137623 0.0011,-10e-4 0.464941,-0.0028 1.030881,-0.0041 0.958708,-0.0022 1.029772,-0.0015 1.040557,0.0093 0.0101,0.0101 0.01142,0.02801 0.01076,0.143217 -6.85e-4,0.102944 -0.003,0.133733 -0.01043,0.141248 -0.0079,0.0079 -0.07836,0.0098 -0.422114,0.01076 l -0.412499,0.0012 -0.01308,0.01622 c -0.01275,0.01573 -0.01308,0.0437 -0.01308,1.147678 0,0.954056 -0.0015,1.133544 -0.0094,1.144502 -0.0088,0.01208 -0.02057,0.01308 -0.162353,0.01357 -0.138434,5.27e-4 -0.15401,-5.28e-4 -0.165167,-0.01175 z M 67.338516,70.043534 c -0.508386,-0.06747 -0.93408,-0.392275 -1.135765,-0.866598 -0.09432,-0.221842 -0.139907,-0.448597 -0.146611,-0.729364 -0.0078,-0.32498 0.03448,-0.63116 0.118123,-0.856143 0.06383,-0.171706 0.179542,-0.368034 0.292311,-0.495962 0.275038,-0.31201 0.66504,-0.471907 1.153758,-0.473029 0.200692,-4.6e-4 0.330659,0.01865 0.495372,0.07285 0.362838,0.119398 0.621564,0.357808 0.760997,0.701252 0.04127,0.101637 0.06562,0.183354 0.05714,0.191735 -0.0035,0.0035 -0.118769,0.03273 -0.256267,0.06517 -0.137507,0.03243 -0.27982,0.06653 -0.31626,0.07575 -0.03643,0.0093 -0.07081,0.01506 -0.07639,0.01291 -0.0056,-0.0022 -0.01847,-0.03059 -0.02864,-0.06323 -0.04858,-0.155798 -0.143764,-0.284461 -0.273455,-0.369599 -0.215442,-0.14143 -0.5173,-0.156741 -0.763784,-0.03873 -0.194362,0.09306 -0.320818,0.243662 -0.397401,0.473295 -0.03153,0.09455 -0.05804,0.221417 -0.06831,0.327016 -0.0093,0.09498 -0.0094,0.401685 -3.2e-4,0.500528 0.01556,0.168573 0.05244,0.330318 0.10311,0.452121 0.09682,0.232731 0.298999,0.396428 0.554321,0.448805 0.0928,0.01904 0.240352,0.01639 0.323581,-0.006 0.118537,-0.03175 0.215068,-0.08358 0.294515,-0.158132 0.119083,-0.11175 0.190957,-0.237857 0.247817,-0.434846 0.01242,-0.04287 0.02639,-0.07778 0.03286,-0.08186 0.0086,-0.0055 0.05264,0.0063 0.184688,0.049 0.09538,0.03086 0.235058,0.07558 0.310401,0.09938 0.120441,0.03804 0.137259,0.04511 0.139195,0.05848 0.0048,0.03288 -0.07932,0.255662 -0.139526,0.369566 -0.200473,0.379326 -0.520629,0.604285 -0.952755,0.66946 -0.105709,0.01589 -0.411457,0.01965 -0.512702,0.0063 z m 8.032693,-9.5e-5 c -0.339305,-0.0411 -0.629997,-0.186759 -0.868371,-0.435099 -0.261503,-0.272436 -0.40439,-0.641018 -0.431217,-1.112342 -0.0056,-0.0998 0.0071,-0.372351 0.02331,-0.496583 0.03176,-0.243744 0.102546,-0.462332 0.212085,-0.654946 0.270559,-0.475785 0.727341,-0.723074 1.336411,-0.723493 0.150203,-1.02e-4 0.265841,0.01341 0.39384,0.04623 0.358958,0.09187 0.630174,0.295278 0.794582,0.595893 0.05135,0.09391 0.119811,0.270392 0.119811,0.30889 0,0.02163 -0.0048,0.02341 -0.154109,0.0577 -0.0678,0.01556 -0.204203,0.048 -0.303096,0.07207 -0.09889,0.02408 -0.184114,0.04213 -0.189377,0.04011 -0.0053,-0.002 -0.01938,-0.03198 -0.0314,-0.06656 -0.08318,-0.239686 -0.217702,-0.374449 -0.445296,-0.446102 -0.231442,-0.07287 -0.492657,-0.03766 -0.685783,0.09242 -0.05981,0.04027 -0.149706,0.128982 -0.190058,0.187502 -0.101603,0.147373 -0.162336,0.345853 -0.186542,0.609723 -0.01556,0.16885 6.32e-4,0.474242 0.03524,0.668235 0.02567,0.143847 0.08833,0.297531 0.160548,0.393841 0.04239,0.05653 0.121931,0.13605 0.171724,0.171679 0.06022,0.04309 0.160748,0.08939 0.239347,0.110244 0.06098,0.01622 0.08164,0.01824 0.18836,0.01879 0.07573,3.92e-4 0.134991,-0.0026 0.160962,-0.0084 0.278977,-0.06097 0.453632,-0.235847 0.555358,-0.556054 0.04037,-0.127095 0.04165,-0.130141 0.05425,-0.130141 0.0058,0 0.111452,0.03218 0.234738,0.07151 0.123288,0.03933 0.260195,0.0827 0.304228,0.09639 0.04403,0.01374 0.08353,0.02907 0.08776,0.03418 0.0099,0.01208 -0.0086,0.07575 -0.05971,0.205466 -0.08695,0.220464 -0.1859,0.374254 -0.328302,0.51028 -0.09179,0.08768 -0.178591,0.148332 -0.293517,0.20508 -0.149673,0.07391 -0.313885,0.119563 -0.492634,0.13696 -0.100775,0.0098 -0.318467,0.0079 -0.413146,-0.0035 z m 3.2654,0.0036 c -0.275423,-0.02569 -0.46483,-0.08576 -0.633071,-0.20076 -0.21794,-0.148978 -0.373596,-0.397598 -0.414424,-0.661933 -0.01142,-0.07422 -0.0273,-0.243242 -0.03433,-0.366443 -0.0036,-0.06404 -0.0074,-0.56678 -0.0086,-1.117194 -0.0016,-0.836728 -4.12e-4,-1.002597 0.0074,-1.011999 0.0084,-0.0101 0.04074,-0.01126 0.326153,-0.01126 0.286346,0 0.317724,0.0011 0.326219,0.01126 0.0079,0.0094 0.0096,0.183254 0.01026,1.066794 9.48e-4,1.097831 0.0025,1.165473 0.03021,1.283601 0.03607,0.153994 0.121186,0.276739 0.242742,0.350071 0.05453,0.03289 0.148531,0.06676 0.22377,0.08065 0.09189,0.01693 0.289803,0.01688 0.368708,-1.23e-4 0.24132,-0.05199 0.383846,-0.192127 0.421211,-0.414147 0.02167,-0.128751 0.02405,-0.256572 0.02418,-1.295958 1.03e-4,-0.828261 0.0018,-1.04808 0.0088,-1.061659 l 0.0086,-0.01712 0.318297,-0.0018 c 0.293151,-0.0016 0.318972,-8.95e-4 0.326856,0.0099 0.01093,0.0149 0.01242,1.91301 0.0016,2.13579 -0.01308,0.27161 -0.03451,0.423159 -0.07869,0.555899 -0.08098,0.243243 -0.246703,0.42685 -0.48991,0.542754 -0.119977,0.05717 -0.232326,0.08995 -0.393337,0.114746 -0.08114,0.01242 -0.488632,0.01861 -0.592784,0.0089 z m -9.11512,-0.05578 c -0.01208,-0.01208 -0.01208,-3.293562 -6.6e-5,-3.30559 0.01026,-0.01026 0.633152,-0.01175 0.649323,-0.0015 0.0091,0.0058 0.01026,0.196222 0.01076,1.644156 3.07e-4,1.170893 -0.0017,1.64194 -0.0071,1.652668 l -0.0074,0.01506 -0.318572,0.0018 c -0.242073,0.0014 -0.320561,-2.1e-4 -0.326858,-0.0065 z m 1.31389,-0.0051 c -0.0048,-0.0091 -0.0071,-0.534139 -0.0071,-1.647732 0,-1.113592 0.0023,-1.638705 0.0071,-1.647731 0.007,-0.01291 0.02314,-0.01324 0.809943,-0.01308 0.933317,1.22e-4 1.027662,0.0041 1.243167,0.05199 0.299855,0.06668 0.499085,0.244059 0.59926,0.533524 0.116269,0.335957 0.07578,0.654585 -0.115574,0.90955 -0.128966,0.171826 -0.301194,0.271498 -0.5827,0.337202 -0.05497,0.01291 -0.101256,0.02465 -0.102878,0.02625 -0.0016,0.0016 0.03652,0.02988 0.08474,0.0628 0.236297,0.161327 0.343,0.282489 0.58797,0.667639 0.146032,0.229589 0.449828,0.71475 0.453405,0.724071 0.003,0.0076 -0.06419,0.0088 -0.39068,0.0073 l -0.394191,-0.0018 -0.02107,-0.0202 c -0.01159,-0.01109 -0.08492,-0.115905 -0.162965,-0.232879 -0.431342,-0.646584 -0.584945,-0.866739 -0.658686,-0.944073 -0.07644,-0.08017 -0.160499,-0.131879 -0.265954,-0.163611 -0.03849,-0.01159 -0.07591,-0.0149 -0.221003,-0.01937 -0.153133,-0.0048 -0.176136,-0.0041 -0.186644,0.0051 -0.01126,0.0099 -0.01192,0.05107 -0.01192,0.679268 0,0.5941 -0.0012,0.670352 -0.01059,0.683877 l -0.01059,0.01523 h -0.317868 c -0.307256,0 -0.318105,-4.42e-4 -0.324959,-0.01324 z m 1.523729,-1.911757 c 0.157354,-0.0086 0.215509,-0.01963 0.288728,-0.05479 0.09528,-0.04575 0.164787,-0.130803 0.198451,-0.242836 0.01678,-0.05585 0.0167,-0.181366 -1.44e-4,-0.243154 -0.02978,-0.109152 -0.09738,-0.193486 -0.192488,-0.240122 -0.105113,-0.05155 -0.08051,-0.04943 -0.630145,-0.05429 -0.404663,-0.0036 -0.495922,-0.0028 -0.508569,0.0048 l -0.01539,0.0091 v 0.406012 c 0,0.306655 0.002,0.408023 0.0083,0.414232 0.01059,0.01059 0.661832,0.01142 0.851357,0.0011 z m 8.538047,1.911757 c -0.0048,-0.0091 -0.0071,-0.534734 -0.0071,-1.649643 0,-1.576617 4.57e-4,-1.636811 0.01258,-1.647732 0.01126,-0.01026 0.04402,-0.01126 0.327401,-0.01126 0.235771,0 0.316941,0.002 0.323096,0.0083 0.01192,0.01192 0.01192,3.293554 0,3.305522 -0.0061,0.0061 -0.08853,0.0083 -0.328532,0.0083 -0.309671,0 -0.320546,-4.4e-4 -0.327401,-0.01324 z m 2.068107,0.0028 c -0.007,-0.0084 -0.0084,-0.277072 -0.0073,-1.357944 0.001,-0.894455 -8.44e-4,-1.353581 -0.0055,-1.365663 -0.0038,-0.0099 -0.01407,-0.02078 -0.02273,-0.02392 -0.0088,-0.0031 -0.224132,-0.0058 -0.478759,-0.0058 -0.382307,0 -0.464936,-0.0016 -0.47432,-0.0094 -0.01026,-0.0084 -0.01142,-0.03564 -0.01142,-0.270896 0,-0.194251 0.0022,-0.263607 0.0083,-0.269712 0.0063,-0.0063 0.309289,-0.0083 1.321935,-0.0083 h 1.313717 v 0.281531 0.28153 l -0.48188,-0.0023 c -0.399957,-0.002 -0.483797,-7.91e-4 -0.493158,0.007 -0.01043,0.0086 -0.01126,0.115144 -0.01126,1.371063 0,1.22878 -0.0011,1.362755 -0.01076,1.372468 -0.0094,0.0094 -0.04842,0.01076 -0.324507,0.01076 -0.273273,0 -0.314867,-0.0014 -0.322444,-0.01043 z"
         id="path9" /></g></g></svg>
